# xmcd
#
# Track frame offsets: 
#        150
#        20675
#        41595
#        60184
#        77154
#        97556
#        116554
#        139197
#        152978
#        170907
#        188200
#
# Disc length: 2895 seconds
#
# Revision: 0
# Processed by: cddbd v1.5.2PL0 Copyright (c) Steve Scherf et al.
# Submitted via: ExactAudioCopy v0.99pb5
#
DISCID=8a0b4d0b
DTITLE=Sardinas, Eric and Big Motor - Eric Sardinas and Big Motor
DYEAR=2008
DGENRE=Blues Rock
TTITLE0=All I Need
TTITLE1=Ride
TTITLE2=Find My Heart
TTITLE3=Gone To Memphis
TTITLE4=It's Nothing New
TTITLE5=This Time
TTITLE6=Just Like That
TTITLE7=Burning Love
TTITLE8=Wonderin' Blues
TTITLE9=Door To Diamonds
TTITLE10=As The Crow Flies
EXTD=
EXTT0=
EXTT1=
EXTT2=
EXTT3=
EXTT4=
EXTT5=
EXTT6=
EXTT7=
EXTT8=
EXTT9=
EXTT10=
PLAYORDER=
